<svg xmlns="http://www.w3.org/2000/svg" xmlns:xlink="http://www.w3.org/1999/xlink"><symbol id="location"><path fill-rule="evenodd" d="M4.822.003C2.332.094.263 2.108.024 4.679a5.369 5.369 0 00.067 1.489s.007.057.033.163c.077.358.193.704.337 1.03.501 1.23 1.66 3.29 4.261 5.531a.421.421 0 00.555 0c2.6-2.238 3.759-4.298 4.263-5.535.147-.324.26-.668.337-1.028.023-.104.033-.163.033-.163.059-.32.09-.647.09-.983C10 2.257 7.664-.101 4.822.003zm.177 7.76c-1.341 0-2.428-1.128-2.428-2.519 0-1.39 1.087-2.518 2.428-2.518 1.342 0 2.429 1.128 2.429 2.518 0 1.391-1.087 2.519-2.429 2.519z"/></symbol><symbol id="phone"><path fill-rule="evenodd" d="M12.994 10.259a.63.63 0 01-.193.551l-1.83 1.818c-.083.092-.191.17-.324.234a1.37 1.37 0 01-.392.125.884.884 0 00-.083.006 1.734 1.734 0 01-.179.007c-.174 0-.456-.03-.846-.09-.39-.06-.867-.206-1.431-.44-.564-.234-1.204-.586-1.92-1.053-.716-.469-1.477-1.112-2.285-1.929a15.087 15.087 0 01-1.596-1.817A12.949 12.949 0 01.897 6.066 8.56 8.56 0 01.319 4.73a7.033 7.033 0 01-.262-1.032 3.42 3.42 0 01-.055-.682l.014-.276c.018-.127.06-.258.124-.392.064-.133.142-.241.234-.323L2.204.193A.603.603 0 012.644 0c.12 0 .225.034.317.103.092.069.17.154.234.255l1.473 2.795a.674.674 0 01.068.483.857.857 0 01-.234.441l-.674.674a.234.234 0 00-.048.089.346.346 0 00-.021.104c.037.193.119.413.248.661.11.22.28.489.509.806.229.316.555.681.977 1.095.413.422.78.749 1.101.984.321.234.59.406.805.517.216.11.381.176.496.199l.172.035a.321.321 0 00.089-.021.248.248 0 00.09-.048l.784-.799a.842.842 0 01.578-.22c.156 0 .28.027.372.082h.013l2.657 1.571c.192.118.307.269.344.453z"/></symbol></svg>