<svg 
 xmlns="http://www.w3.org/2000/svg"
 xmlns:xlink="http://www.w3.org/1999/xlink"
 width="10px" height="13px">
  <path fill-rule="evenodd" d="M4.822,0.003 C2.332,0.094 0.263,2.108 0.024,4.679 C-0.025,5.193 0.003,5.692 0.091,6.168 L0.091,6.168 C0.091,6.168 0.098,6.225 0.124,6.331 C0.201,6.689 0.317,7.035 0.461,7.361 C0.962,8.591 2.121,10.651 4.722,12.892 C4.881,13.031 5.115,13.031 5.277,12.892 C7.877,10.654 9.036,8.594 9.540,7.357 C9.687,7.033 9.800,6.689 9.877,6.329 C9.900,6.225 9.910,6.166 9.910,6.166 L9.910,6.166 C9.969,5.846 10.000,5.519 10.000,5.183 C10.000,2.257 7.664,-0.101 4.822,0.003 ZM4.999,7.763 C3.658,7.763 2.571,6.635 2.571,5.244 C2.571,3.854 3.658,2.726 4.999,2.726 C6.341,2.726 7.428,3.854 7.428,5.244 C7.428,6.635 6.341,7.763 4.999,7.763 Z"/>
</svg>