<svg 
 xmlns="http://www.w3.org/2000/svg"
 xmlns:xlink="http://www.w3.org/1999/xlink"
 width="13px" height="13px">
  <path fill-rule="evenodd" d="M12.994,10.259 C13.021,10.471 12.957,10.654 12.801,10.810 L10.971,12.628 C10.888,12.720 10.780,12.798 10.647,12.862 C10.514,12.926 10.383,12.968 10.255,12.987 C10.246,12.987 10.218,12.988 10.172,12.993 C10.126,12.998 10.067,13.000 9.993,13.000 C9.819,13.000 9.537,12.970 9.147,12.910 C8.757,12.850 8.280,12.704 7.716,12.470 C7.152,12.236 6.512,11.884 5.796,11.417 C5.080,10.948 4.319,10.305 3.511,9.488 C2.869,8.855 2.337,8.249 1.915,7.671 C1.493,7.092 1.154,6.558 0.897,6.066 C0.640,5.575 0.447,5.130 0.319,4.730 C0.190,4.331 0.103,3.987 0.057,3.698 C0.011,3.409 -0.007,3.181 0.002,3.016 C0.011,2.851 0.016,2.758 0.016,2.740 C0.034,2.613 0.076,2.482 0.140,2.348 C0.204,2.215 0.282,2.107 0.374,2.025 L2.204,0.193 C2.332,0.064 2.479,-0.000 2.644,-0.000 C2.764,-0.000 2.869,0.034 2.961,0.103 C3.053,0.172 3.131,0.257 3.195,0.358 L4.668,3.153 C4.750,3.300 4.773,3.461 4.736,3.636 C4.700,3.810 4.622,3.956 4.502,4.077 L3.828,4.751 C3.810,4.769 3.794,4.799 3.780,4.840 C3.766,4.882 3.759,4.917 3.759,4.944 C3.796,5.137 3.878,5.357 4.007,5.605 C4.117,5.825 4.287,6.094 4.516,6.411 C4.745,6.727 5.071,7.092 5.493,7.506 C5.906,7.928 6.273,8.255 6.594,8.490 C6.915,8.724 7.184,8.896 7.399,9.007 C7.615,9.117 7.780,9.183 7.895,9.206 L8.067,9.241 C8.085,9.241 8.115,9.234 8.156,9.220 C8.197,9.206 8.227,9.190 8.246,9.172 L9.030,8.373 C9.195,8.226 9.388,8.153 9.608,8.153 C9.764,8.153 9.888,8.180 9.980,8.235 L9.993,8.235 L12.650,9.806 C12.842,9.924 12.957,10.075 12.994,10.259 Z"/>
</svg>